<svg width="18" height="18" viewBox="0 0 18 18" fill="none" xmlns="http://www.w3.org/2000/svg">
<path d="M12.2546 4.61181C12.2546 4.37392 12.3491 4.14577 12.5174 3.97756C12.6856 3.80935 12.9137 3.71484 13.1516 3.71484C13.3895 3.71484 13.6176 3.80935 13.7859 3.97756C13.9541 4.14577 14.0486 4.37392 14.0486 4.61181C14.0486 4.8497 13.9541 5.07785 13.7859 5.24607C13.6176 5.41428 13.3895 5.50878 13.1516 5.50878C12.9137 5.50878 12.6856 5.41428 12.5174 5.24607C12.3491 5.07785 12.2546 4.8497 12.2546 4.61181Z" fill="#CEAAD0"/>
<path fill-rule="evenodd" clip-rule="evenodd" d="M8.66686 4.83594C7.53687 4.83594 6.45317 5.28482 5.65415 6.08384C4.85513 6.88286 4.40625 7.96656 4.40625 9.09654C4.40625 10.2265 4.85513 11.3102 5.65415 12.1092C6.45317 12.9083 7.53687 13.3572 8.66686 13.3572C9.79684 13.3572 10.8805 12.9083 11.6796 12.1092C12.4786 11.3102 12.9275 10.2265 12.9275 9.09654C12.9275 7.96656 12.4786 6.88286 11.6796 6.08384C10.8805 5.28482 9.79684 4.83594 8.66686 4.83594ZM5.7517 9.09654C5.7517 8.3234 6.05884 7.58192 6.60553 7.03522C7.15223 6.48852 7.89371 6.18139 8.66686 6.18139C9.44 6.18139 10.1815 6.48852 10.7282 7.03522C11.2749 7.58192 11.582 8.3234 11.582 9.09654C11.582 9.86969 11.2749 10.6112 10.7282 11.1579C10.1815 11.7046 9.44 12.0117 8.66686 12.0117C7.89371 12.0117 7.15223 11.7046 6.60553 11.1579C6.05884 10.6112 5.7517 9.86969 5.7517 9.09654Z" fill="#CEAAD0"/>
<path fill-rule="evenodd" clip-rule="evenodd" d="M13.3829 0.873899C10.2483 0.526409 7.08496 0.526409 3.95039 0.873899C2.14568 1.07572 0.688108 2.49741 0.476423 4.31109C0.104539 7.49047 0.104539 10.7024 0.476423 13.8818C0.688108 15.6954 2.14479 17.1171 3.95039 17.3189C7.08498 17.6661 10.2483 17.6661 13.3829 17.3189C15.1876 17.1171 16.6452 15.6954 16.8569 13.8818C17.2288 10.7024 17.2288 7.49047 16.8569 4.31109C16.6452 2.49741 15.1885 1.07572 13.3829 0.873899ZM4.09928 2.21038C7.1349 1.87391 10.1984 1.87391 13.234 2.21038C14.427 2.34493 15.3823 3.28585 15.5213 4.46806C15.8809 7.54315 15.8809 10.6497 15.5213 13.7248C15.4494 14.3034 15.1845 14.8408 14.7695 15.2503C14.3545 15.6598 13.8135 15.9174 13.234 15.9816C10.1984 16.3181 7.1349 16.3181 4.09928 15.9816C3.51979 15.9174 2.97884 15.6598 2.56381 15.2503C2.14878 14.8408 1.88392 14.3034 1.81201 13.7248C1.45237 10.6497 1.45237 7.54315 1.81201 4.46806C1.88392 3.88947 2.14878 3.35203 2.56381 2.94254C2.97884 2.53304 3.51979 2.27452 4.09928 2.21038Z" fill="#CEAAD0"/>
</svg>
